<?xml version="1.0" encoding="iso-8859-1"?>
<!-- Generator: Adobe Illustrator 19.0.0, SVG Export Plug-In . SVG Version: 6.00 Build 0)  -->
<svg version="1.1" id="Capa_1" xmlns="http://www.w3.org/2000/svg" xmlns:xlink="http://www.w3.org/1999/xlink" x="0px" y="0px"
	 viewBox="0 0 512 512" style="enable-background:new 0 0 512 512;" xml:space="preserve">
<path style="fill:#FD4E26;" d="M512,360.642v45l-30,30H27l-27-30v-100.2c0-56.7,42-104.7,96-109.5c23.4-1.8,46.2,3.9,65.7,16.5
	c31.5,20.7,63.7,33.9,94.3,39.6c12,2.4,24,3.6,35.7,3.6h11.8c6.9-34.2,37.2-60,73.5-60c8.4,0,15,6.6,15,15v46.5
	c34.2,6.9,60,37.2,60,73.5c0,8.4,6.6,15,15,15h30C505.4,345.642,512,352.242,512,360.642z"/>
<path style="fill:#E1E4FB;" d="M198.974,160.222c-4.702-7.061-2.798-16.582,4.263-21.284c12.28-8.197,12.331-26.222,0-34.453
	c-30.511-20.32-30.503-65.232,0-85.547c7.017-4.702,16.567-2.798,21.284,4.263c4.702,7.046,2.798,16.582-4.263,21.284
	c-12.3,8.231-12.3,26.222,0,34.453c30.544,20.342,30.503,65.232,0,85.547C213.161,169.202,203.662,167.255,198.974,160.222z"/>
<g>
	<path style="fill:#C5C9F7;" d="M273.974,160.222c-4.702-7.061-2.798-16.582,4.263-21.284c12.28-8.197,12.331-26.222,0-34.453
		c-30.511-20.32-30.503-65.232,0-85.547c7.017-4.702,16.567-2.798,21.284,4.263c4.702,7.046,2.798,16.582-4.263,21.284
		c-12.3,8.231-12.3,26.222,0,34.453c30.544,20.342,30.503,65.232,0,85.547C288.161,169.202,278.662,167.255,273.974,160.222z"/>
	<path style="fill:#C5C9F7;" d="M349.974,160.222c-4.702-7.061-2.798-16.582,4.263-21.284c12.28-8.197,12.331-26.222,0-34.453
		c-30.511-20.32-30.503-65.232,0-85.547c7.031-4.702,16.582-2.798,21.284,4.263c4.702,7.046,2.798,16.582-4.263,21.284
		c-12.3,8.231-12.3,26.222,0,34.453c30.544,20.342,30.503,65.232,0,85.547C364.161,169.202,354.662,167.255,349.974,160.222z"/>
</g>
<path style="fill:#E1E4FB;" d="M122.974,160.222c-4.702-7.061-2.798-16.582,4.263-21.284c12.28-8.197,12.331-26.222,0-34.453
	c-30.511-20.32-30.503-65.232,0-85.547c7.046-4.702,16.567-2.798,21.284,4.263c4.702,7.046,2.798,16.582-4.263,21.284
	c-12.3,8.231-12.3,26.222,0,34.453C198.124,114.812,142.974,190.222,122.974,160.222z"/>
<path style="fill:#FD3018;" d="M512,360.642v45l-30,30H256v-183.6c12,2.4,24,3.6,35.7,3.6h11.8c6.9-34.2,37.2-60,73.5-60
	c8.4,0,15,6.6,15,15v46.5c34.2,6.9,60,37.2,60,73.5c0,8.4,6.6,15,15,15h30C505.4,345.642,512,352.242,512,360.642z"/>
<path style="fill:#896748;" d="M0,405.642v15c0,41.4,33.6,75,75,75h362c41.4,0,75-33.6,75-75v-15H0z"/>
<g>
	<path style="fill:#73553A;" d="M512,405.642v15c0,41.4-33.6,75-75,75H256v-90H512z"/>
	<circle style="fill:#73553A;" cx="377" cy="330.64" r="15"/>
</g>
<g>
</g>
<g>
</g>
<g>
</g>
<g>
</g>
<g>
</g>
<g>
</g>
<g>
</g>
<g>
</g>
<g>
</g>
<g>
</g>
<g>
</g>
<g>
</g>
<g>
</g>
<g>
</g>
<g>
</g>
</svg>
